<svg xmlns="http://www.w3.org/2000/svg" viewBox="0 0 24 20" aria-labelledby="cart-title" role="img"><title id="cart-title">Cart</title><path fill="currentColor" fill-rule="evenodd" d="M18.1962349,17.2101133 C18.939862,17.2101133 19.5482841,17.8378378 19.5482841,18.6050567 C19.5482841,19.3722755 18.939862,20 18.1962349,20 C17.4526079,20 16.8441857,19.3722755 16.8441857,18.6050567 C16.8441857,17.8378378 17.4526079,17.2101133 18.1962349,17.2101133 Z M8.66428806,17.2101133 C9.40791512,17.2101133 10.0163373,17.8378378 10.0163373,18.6050567 C10.0163373,19.3722755 9.40791512,20 8.66428806,20 C7.920661,20 7.31223886,19.3722755 7.31223886,18.6050567 C7.31223886,17.8378378 7.920661,17.2101133 8.66428806,17.2101133 Z M6.19679827,2.80732345 L6.21369889,2.80732345 L22.7763016,2.80732345 C23.1312145,2.80732345 23.418525,2.98169137 23.5875311,3.27811683 C23.7565373,3.57454228 23.7565373,3.94071491 23.5875311,4.27201395 L19.683489,12.1883173 C19.4299798,12.6939843 18.939862,13.0252833 18.3990423,13.0252833 L8.91779729,13.0252833 C8.91779729,13.0252833 8.91779729,13.0252833 8.91779729,13.0427201 L7.97136285,14.7515257 C7.90376039,14.8735833 7.97136285,15.0130776 8.12346838,15.0130776 L19.463781,15.0130776 C19.8862964,15.0130776 20.2412093,15.3792502 20.2412093,15.81517 C20.2412093,16.2510898 19.8862964,16.6172624 19.463781,16.6172624 L8.12346838,16.6172624 C7.81925731,16.6172624 7.51504624,16.5300785 7.26153702,16.3731473 C7.00802779,16.2162162 6.7883198,15.9895379 6.63621426,15.7105493 C6.48410873,15.4315606 6.39960565,15.1176983 6.39960565,14.8212729 C6.39960565,14.5248474 6.48410873,14.2109852 6.63621426,13.9319965 L7.26153702,12.8160418 C7.41364255,12.55449 7.44744378,12.2580645 7.34604009,11.9616391 L5.03065584,4.25457716 C5.03065584,4.21970357 5.01375522,4.20226678 5.01375522,4.1673932 L4.23632693,1.673932 C4.23632693,1.6564952 4.21942632,1.63905841 4.2025257,1.62162162 C4.18562509,1.62162162 4.16872447,1.60418483 4.15182386,1.60418483 L1.66743345,1.60418483 C1.24491808,1.60418483 0.890005164,1.23801221 0.890005164,0.802092415 C0.890005164,0.366172624 1.24491808,0 1.66743345,0 L4.15182386,0 C4.50673677,0 4.84474907,0.122057541 5.11515891,0.331299041 C5.38556875,0.540540541 5.60527675,0.836965998 5.70668044,1.18570183 L6.19679827,2.78988666 L6.19679827,2.80732345 Z"/></svg>