<svg class="site-logo-img" xmlns="http://www.w3.org/2000/svg" viewBox="0 0 119 109" aria-labelledby="logo-title" role="img"><title id="logo-title">Design Systems Within Reach</title><g fill="none" fill-rule="evenodd"><path fill="currentColor" d="M1 0H119V108H1z"/><path fill="#FFF" d="M3 2H117V106H3z"/><path fill="currentColor" d="M5 4H115V104H5z"/><path fill="#FFF" fill-rule="nonzero" d="M23.7284418,28.448 L25.8344418,28.448 C28.3364418,28.448 29.8124418,26.792 29.8124418,24.2 C29.8124418,21.608 28.3364418,19.934 25.8344418,19.934 L23.7284418,19.934 L23.7284418,28.448 Z M22.3064418,29.726 L22.3064418,18.674 L25.8524418,18.674 C29.0924418,18.674 31.2164418,20.834 31.2164418,24.2 C31.2164418,27.566 29.0924418,29.726 25.8524418,29.726 L22.3064418,29.726 Z M37.7964418,18.674 L44.8344418,18.674 L44.8344418,19.934 L39.2004418,19.934 L39.2004418,23.426 L44.3124418,23.426 L44.3124418,24.686 L39.2004418,24.686 L39.2004418,28.448 L44.8344418,28.448 L44.8344418,29.726 L37.7964418,29.726 L37.7964418,18.674 Z M51.0904418,28.862 L51.0904418,27.332 C52.1164418,28.214 53.2684418,28.628 54.5644418,28.628 C55.9864418,28.628 56.9224418,28.016 56.9224418,26.882 C56.9224418,25.91 56.3284418,25.514 55.1584418,25.028 L53.5384418,24.398 C52.2424418,23.894 51.0544418,23.156 51.0544418,21.41 C51.0544418,19.502 52.6924418,18.512 54.6004418,18.512 C55.8064418,18.512 56.9404418,18.836 57.7684418,19.412 L57.7684418,20.906 C56.8864418,20.204 55.8964418,19.754 54.6184418,19.754 C53.3944418,19.754 52.4404418,20.294 52.4404418,21.392 C52.4404418,22.328 53.0704418,22.724 54.0964418,23.12 L55.8424418,23.804 C57.5344418,24.452 58.2904418,25.334 58.2904418,26.864 C58.2904418,28.754 56.7064418,29.888 54.5644418,29.888 C53.0704418,29.888 51.8464418,29.456 51.0904418,28.862 Z M66.3464418,18.674 L66.3464418,29.726 L64.9244418,29.726 L64.9244418,18.674 L66.3464418,18.674 Z M78.1284418,28.628 C79.1364418,28.628 79.9464418,28.376 80.6664418,27.782 L80.6664418,25.172 L78.2364418,25.172 L78.2364418,23.984 L81.9804418,23.984 L81.9804418,28.304 C80.9184418,29.474 79.4604418,29.888 78.0924418,29.888 C75.0144418,29.888 72.9264418,27.62 72.9264418,24.2 C72.9264418,20.762 75.2124418,18.512 78.2544418,18.512 C79.5504418,18.512 80.6664418,18.89 81.4404418,19.502 L81.4404418,21.014 C80.5044418,20.168 79.4604418,19.79 78.2544418,19.79 C75.9504418,19.79 74.3484418,21.536 74.3484418,24.2 C74.3484418,26.864 75.8244418,28.628 78.1284418,28.628 Z M97.4344418,18.674 L97.4344418,29.726 L96.3904418,29.726 L90.2164418,20.942 L90.2164418,29.726 L88.8484418,29.726 L88.8484418,18.674 L90.1984418,18.674 L96.0844418,27.08 L96.0844418,18.674 L97.4344418,18.674 Z"/><path fill="#FFF" fill-rule="nonzero" d="M21.2304418,48.662 L21.2304418,47.132 C22.2564418,48.014 23.4084418,48.428 24.7044418,48.428 C26.1264418,48.428 27.0624418,47.816 27.0624418,46.682 C27.0624418,45.71 26.4684418,45.314 25.2984418,44.828 L23.6784418,44.198 C22.3824418,43.694 21.1944418,42.956 21.1944418,41.21 C21.1944418,39.302 22.8324418,38.312 24.7404418,38.312 C25.9464418,38.312 27.0804418,38.636 27.9084418,39.212 L27.9084418,40.706 C27.0264418,40.004 26.0364418,39.554 24.7584418,39.554 C23.5344418,39.554 22.5804418,40.094 22.5804418,41.192 C22.5804418,42.128 23.2104418,42.524 24.2364418,42.92 L25.9824418,43.604 C27.6744418,44.252 28.4304418,45.134 28.4304418,46.664 C28.4304418,48.554 26.8464418,49.688 24.7044418,49.688 C23.2104418,49.688 21.9864418,49.256 21.2304418,48.662 Z M35.6204418,43.694 L38.8064418,38.474 L40.3184418,38.474 L36.2864418,44.972 L36.2864418,49.526 L34.8824418,49.526 L34.8824418,44.972 L30.8864418,38.474 L32.4344418,38.474 L35.6204418,43.694 Z M42.7744418,48.662 L42.7744418,47.132 C43.8004418,48.014 44.9524418,48.428 46.2484418,48.428 C47.6704418,48.428 48.6064418,47.816 48.6064418,46.682 C48.6064418,45.71 48.0124418,45.314 46.8424418,44.828 L45.2224418,44.198 C43.9264418,43.694 42.7384418,42.956 42.7384418,41.21 C42.7384418,39.302 44.3764418,38.312 46.2844418,38.312 C47.4904418,38.312 48.6244418,38.636 49.4524418,39.212 L49.4524418,40.706 C48.5704418,40.004 47.5804418,39.554 46.3024418,39.554 C45.0784418,39.554 44.1244418,40.094 44.1244418,41.192 C44.1244418,42.128 44.7544418,42.524 45.7804418,42.92 L47.5264418,43.604 C49.2184418,44.252 49.9744418,45.134 49.9744418,46.664 C49.9744418,48.554 48.3904418,49.688 46.2484418,49.688 C44.7544418,49.688 43.5304418,49.256 42.7744418,48.662 Z M52.8084418,39.734 L52.8084418,38.474 L61.9344418,38.474 L61.9344418,39.734 L58.0824418,39.734 L58.0824418,49.526 L56.6604418,49.526 L56.6604418,39.734 L52.8084418,39.734 Z M65.4884418,38.474 L72.5264418,38.474 L72.5264418,39.734 L66.8924418,39.734 L66.8924418,43.226 L72.0044418,43.226 L72.0044418,44.486 L66.8924418,44.486 L66.8924418,48.248 L72.5264418,48.248 L72.5264418,49.526 L65.4884418,49.526 L65.4884418,38.474 Z M81.7144418,47.06 L81.6424418,47.06 L77.8444418,41.03 L77.8444418,49.526 L76.4584418,49.526 L76.4584418,38.474 L77.7724418,38.474 L81.6964418,44.828 L85.6024418,38.474 L86.8444418,38.474 L86.8444418,49.526 L85.4584418,49.526 L85.4584418,41.03 L81.7144418,47.06 Z M90.5964418,48.662 L90.5964418,47.132 C91.6224418,48.014 92.7744418,48.428 94.0704418,48.428 C95.4924418,48.428 96.4284418,47.816 96.4284418,46.682 C96.4284418,45.71 95.8344418,45.314 94.6644418,44.828 L93.0444418,44.198 C91.7484418,43.694 90.5604418,42.956 90.5604418,41.21 C90.5604418,39.302 92.1984418,38.312 94.1064418,38.312 C95.3124418,38.312 96.4464418,38.636 97.2744418,39.212 L97.2744418,40.706 C96.3924418,40.004 95.4024418,39.554 94.1244418,39.554 C92.9004418,39.554 91.9464418,40.094 91.9464418,41.192 C91.9464418,42.128 92.5764418,42.524 93.6024418,42.92 L95.3484418,43.604 C97.0404418,44.252 97.7964418,45.134 97.7964418,46.664 C97.7964418,48.554 96.2124418,49.688 94.0704418,49.688 C92.5764418,49.688 91.3524418,49.256 90.5964418,48.662 Z"/><path fill="#FFF" fill-rule="nonzero" d="M26.8464418,58.274 L27.9804418,58.274 L30.3204418,67.058 L32.5884418,58.274 L33.9564418,58.274 L31.0224418,69.326 L29.7264418,69.326 L27.4044418,60.704 L25.0464418,69.326 L23.7684418,69.326 L20.8344418,58.274 L22.2384418,58.274 L24.5064418,67.058 L26.8464418,58.274 Z M41.6344418,58.274 L41.6344418,69.326 L40.2124418,69.326 L40.2124418,58.274 L41.6344418,58.274 Z M48.0884418,59.534 L48.0884418,58.274 L57.2144418,58.274 L57.2144418,59.534 L53.3624418,59.534 L53.3624418,69.326 L51.9404418,69.326 L51.9404418,59.534 L48.0884418,59.534 Z M71.3364418,58.274 L72.7584418,58.274 L72.7584418,69.326 L71.3364418,69.326 L71.3364418,64.286 L65.0904418,64.286 L65.0904418,69.326 L63.6684418,69.326 L63.6684418,58.274 L65.0904418,58.274 L65.0904418,63.008 L71.3364418,63.008 L71.3364418,58.274 Z M81.4084418,58.274 L81.4084418,69.326 L79.9864418,69.326 L79.9864418,58.274 L81.4084418,58.274 Z M97.2224418,58.274 L97.2224418,69.326 L96.1784418,69.326 L90.0044418,60.542 L90.0044418,69.326 L88.6364418,69.326 L88.6364418,58.274 L89.9864418,58.274 L95.8724418,66.68 L95.8724418,58.274 L97.2224418,58.274 Z"/><path fill="#FFF" fill-rule="nonzero" d="M25.1904418,84.446 L23.2284418,84.446 L23.2284418,89.126 L21.8064418,89.126 L21.8064418,78.074 L25.8564418,78.074 C28.0884418,78.074 29.5284418,79.19 29.5284418,81.278 C29.5284418,83.114 28.4484418,84.14 26.7024418,84.392 L29.9784418,89.126 L28.3584418,89.126 L25.1904418,84.446 Z M23.2284418,79.316 L23.2284418,83.24 L25.8204418,83.24 C27.2784418,83.24 28.1244418,82.502 28.1244418,81.278 C28.1244418,80.054 27.2784418,79.316 25.8204418,79.316 L23.2284418,79.316 Z M38.5424418,78.074 L45.5804418,78.074 L45.5804418,79.334 L39.9464418,79.334 L39.9464418,82.826 L45.0584418,82.826 L45.0584418,84.086 L39.9464418,84.086 L39.9464418,87.848 L45.5804418,87.848 L45.5804418,89.126 L38.5424418,89.126 L38.5424418,78.074 Z M57.9964418,78.074 L59.3284418,78.074 L63.6484418,89.126 L62.2084418,89.126 L60.9304418,85.796 L56.3764418,85.796 L55.1164418,89.126 L53.6764418,89.126 L57.9964418,78.074 Z M58.6444418,79.838 L56.8444418,84.554 L60.4444418,84.554 L58.6444418,79.838 Z M71.1324418,83.6 C71.1324418,80.144 73.3644418,77.912 76.3164418,77.912 C77.5944418,77.912 78.5664418,78.272 79.2864418,78.866 L79.2864418,80.36 C78.3864418,79.532 77.4684418,79.19 76.3344418,79.19 C74.1024418,79.19 72.5544418,80.936 72.5544418,83.6 C72.5544418,86.264 74.1024418,88.01 76.3344418,88.01 C77.4684418,88.01 78.3864418,87.65 79.2864418,86.84 L79.2864418,88.334 C78.5664418,88.928 77.5944418,89.288 76.3164418,89.288 C73.3644418,89.288 71.1324418,87.056 71.1324418,83.6 Z M95.9684418,78.074 L97.3904418,78.074 L97.3904418,89.126 L95.9684418,89.126 L95.9684418,84.086 L89.7224418,84.086 L89.7224418,89.126 L88.3004418,89.126 L88.3004418,78.074 L89.7224418,78.074 L89.7224418,82.808 L95.9684418,82.808 L95.9684418,78.074 Z"/></g></svg>