<svg class="site-logo-img" xmlns="http://www.w3.org/2000/svg" viewBox="0 0 652 221" aria-labelledby="logo-title" role="img"><title id="logo-title">ShopCo</title><g fill="currentColor" fill-rule="nonzero"><path fill-opacity=".9" d="M231.685236,138.355188 C231.685236,133.70498 232.738768,129.712342 234.845862,126.377152 C236.952956,123.041963 239.845379,120.47867 243.523216,118.687196 C247.201054,116.895723 251.415179,116 256.165719,116 C262.448692,116 267.496065,117.524635 271.30799,120.573951 C275.119916,123.623268 278.041071,127.606377 280.071544,132.5234 L266.279722,137.154525 C265.207019,134.600723 263.808696,132.733045 262.08471,131.551435 C260.360723,130.369825 258.21535,129.779029 255.648526,129.779029 C252.660283,129.779029 250.419135,130.541346 248.925013,132.066004 C247.430892,133.590663 246.683842,135.515514 246.683842,137.840618 C246.683842,139.86079 247.335116,141.642708 248.637684,143.186424 C249.940251,144.73014 252.507037,146.264304 256.338117,147.788962 L268.0037,152.362914 C274.899645,155.069182 279.774622,158.451966 282.628777,162.511369 C285.482932,166.570771 286.909988,171.287611 286.909988,176.662031 C286.909988,181.50282 285.760681,185.867089 283.462033,189.754967 C281.163385,193.642845 277.725041,196.711173 273.1469,198.960044 C268.568758,201.208915 262.870111,202.333333 256.050788,202.333333 C247.813964,202.333333 241.033053,200.351308 235.707851,196.387196 C230.382649,192.423085 226.838952,186.915341 225.076655,179.863797 L239.328204,175.232671 C240.707393,179.920995 242.75699,183.237076 245.477058,185.181015 C248.197125,187.124955 251.874907,188.096909 256.510515,188.096909 C261.682474,188.096909 265.456032,187.048723 267.831302,184.952318 C270.206572,182.855913 271.394189,180.225917 271.394189,177.062252 C271.394189,174.699032 270.68545,172.564542 269.26795,170.65872 C267.85045,168.752897 265.149579,166.999567 261.165255,165.398675 L249.614604,160.76755 C243.484875,158.28998 238.964268,155.278826 236.052646,151.733996 C233.141025,148.189165 231.685236,143.729607 231.685236,138.355188 Z M332.145345,163.425722 C332.145345,159.058055 331.0785,155.896292 328.944777,153.940337 C326.811055,151.984382 324.048687,151.006419 320.657592,151.006419 C318.981096,151.006419 317.447506,151.243789 316.056776,151.718535 C314.666046,152.193281 313.465845,152.933875 312.456137,153.940337 C311.446429,154.946799 310.674871,156.23809 310.14144,157.814248 C309.60801,159.390406 309.341298,161.260879 309.341298,163.425722 L309.341298,200 L293.909988,200 L293.909988,117.166667 L309.341298,117.166667 L309.341298,139.156809 L309.398451,144.397983 L309.798522,144.397983 C311.551223,142.15718 313.656337,140.467108 316.113929,139.327717 C318.57152,138.188325 321.51487,137.618638 324.944067,137.618638 C331.992972,137.618638 337.527233,139.821428 341.547014,144.227075 C345.566795,148.632721 347.576655,154.8613 347.576655,162.912999 L347.576655,200 L332.145345,200 L332.145345,163.425722 Z M388.438518,202.333333 C382.009762,202.333333 376.332381,200.954028 371.406204,198.195377 C366.480027,195.436726 362.638047,191.64836 359.880149,186.830168 C357.12225,182.011975 355.743322,176.504203 355.743322,170.306684 C355.743322,164.109166 357.12225,158.591946 359.880149,153.754859 C362.638047,148.917771 366.480027,145.110512 371.406204,142.332965 C376.332381,139.555419 382.009762,138.166667 388.438518,138.166667 C394.905314,138.166667 400.582696,139.555419 405.470833,142.332965 C410.35897,145.110512 414.18193,148.917771 416.939828,153.754859 C419.697727,158.591946 421.076655,164.109166 421.076655,170.306684 C421.076655,176.504203 419.697727,182.011975 416.939828,186.830168 C414.18193,191.64836 410.35897,195.436726 405.470833,198.195377 C400.582696,200.954028 394.905314,202.333333 388.438518,202.333333 Z M388.993322,188.333333 C392.527043,188.333333 395.553217,187.553389 398.071933,185.993477 C400.590649,184.433565 402.526648,182.29594 403.879988,179.580538 C405.233328,176.865136 405.909988,173.774245 405.909988,170.307774 C405.909988,166.841303 405.233328,163.740784 403.879988,161.006124 C402.526648,158.271463 400.590649,156.11458 398.071933,154.53541 C395.553217,152.95624 392.527043,152.166667 388.993322,152.166667 C385.497193,152.166667 382.480418,152.95624 379.942905,154.53541 C377.405392,156.11458 375.459995,158.271463 374.106655,161.006124 C372.753315,163.740784 372.076655,166.841303 372.076655,170.307774 C372.076655,173.774245 372.753315,176.865136 374.106655,179.580538 C375.459995,182.29594 377.405392,184.433565 379.942905,185.993477 C382.480418,187.553389 385.497193,188.333333 388.993322,188.333333 Z M444.835103,221 L429.243322,221 L429.243322,139.540544 L443.281678,139.540544 L443.741952,148.127275 L444.144692,148.127275 C445.94744,145.0742 448.488511,142.650857 451.767979,140.857176 C455.047448,139.063494 459.007682,138.166667 463.648801,138.166667 C468.826909,138.166667 473.583026,139.397419 477.917294,141.858961 C482.251563,144.320503 485.722761,147.926894 488.330993,152.678242 C490.939225,157.429591 492.243322,163.239887 492.243322,170.109307 C492.243322,176.978726 490.939225,182.7604 488.330993,187.454504 C485.722761,192.148607 482.232385,195.697753 477.85976,198.10205 C473.487135,200.506347 468.654307,201.708477 463.36113,201.708477 C459.103574,201.708477 455.565254,201.088331 452.746061,199.848019 C449.926869,198.607707 447.424155,196.804512 445.237842,194.438378 L444.835103,194.438378 L444.835103,221 Z M460.275797,188.333333 C464.908173,188.333333 468.671922,186.727202 471.567158,183.51489 C474.462393,180.302579 475.909988,175.880993 475.909988,170.25 C475.909988,164.619007 474.443091,160.197421 471.509253,156.98511 C468.575415,153.772798 464.850268,152.166667 460.333702,152.166667 C458.09472,152.166667 456.000531,152.572923 454.051073,153.385449 C452.101615,154.197975 450.412753,155.369506 448.984437,156.900078 C447.556121,158.43065 446.436647,160.301321 445.625981,162.512147 C444.815315,164.722973 444.409988,167.226649 444.409988,170.02325 L444.409988,170.590125 C444.409988,173.46231 444.796014,175.994329 445.568077,178.186259 C446.340139,180.378189 447.440312,182.229965 448.868628,183.741641 C450.296944,185.253317 451.976155,186.396504 453.906312,187.171238 C455.836469,187.945972 457.959609,188.333333 460.275797,188.333333 Z M500.409988,159.166667 C500.409988,150.510511 502.183683,142.945979 505.731127,136.472845 C509.27857,129.999711 514.22974,124.969345 520.584785,121.381596 C526.93983,117.793847 534.309675,116 542.694541,116 C549.865309,116 556.077984,117.224372 561.332753,119.673153 C566.587521,122.121934 570.912681,125.529295 574.308362,129.895339 C577.704043,134.261382 580.217568,139.291748 581.849013,144.986588 L566.767712,149.485488 C565.022446,143.145234 561.987246,138.58943 557.662021,135.817942 C553.336796,133.046453 548.480476,131.66073 543.092915,131.66073 C537.819176,131.66073 533.256891,132.818663 529.405923,135.134565 C525.554956,137.450466 522.595636,140.677493 520.527875,144.815743 C518.460114,148.953993 517.426249,153.737586 517.426249,159.166667 C517.426249,164.557781 518.460114,169.322392 520.527875,173.460642 C522.595636,177.598892 525.554956,180.83541 529.405923,183.170295 C533.256891,185.505179 537.819176,186.672603 543.092915,186.672603 C548.594298,186.672603 553.479073,185.239424 557.747387,182.373021 C562.015701,179.506619 565.022446,175.017254 566.767712,168.904793 L582.076655,173.062005 C580.559032,178.45312 578.159327,183.3601 574.877468,187.783091 C571.595609,192.206083 567.308389,195.736831 562.015679,198.37544 C556.72297,201.014049 550.282655,202.333333 542.694541,202.333333 C534.309675,202.333333 526.93983,200.539486 520.584785,196.951737 C514.22974,193.363988 509.27857,188.324131 505.731127,181.832014 C502.183683,175.339897 500.409988,167.784857 500.409988,159.166667 Z M619.438518,202.333333 C613.009762,202.333333 607.332381,200.954028 602.406204,198.195377 C597.480027,195.436726 593.638047,191.64836 590.880149,186.830168 C588.12225,182.011975 586.743322,176.504203 586.743322,170.306684 C586.743322,164.109166 588.12225,158.591946 590.880149,153.754859 C593.638047,148.917771 597.480027,145.110512 602.406204,142.332965 C607.332381,139.555419 613.009762,138.166667 619.438518,138.166667 C625.905314,138.166667 631.582696,139.555419 636.470833,142.332965 C641.35897,145.110512 645.18193,148.917771 647.939828,153.754859 C650.697727,158.591946 652.076655,164.109166 652.076655,170.306684 C652.076655,176.504203 650.697727,182.011975 647.939828,186.830168 C645.18193,191.64836 641.35897,195.436726 636.470833,198.195377 C631.582696,200.954028 625.905314,202.333333 619.438518,202.333333 Z M619.993322,188.333333 C623.527043,188.333333 626.553217,187.553389 629.071933,185.993477 C631.590649,184.433565 633.526648,182.29594 634.879988,179.580538 C636.233328,176.865136 636.909988,173.774245 636.909988,170.307774 C636.909988,166.841303 636.233328,163.740784 634.879988,161.006124 C633.526648,158.271463 631.590649,156.11458 629.071933,154.53541 C626.553217,152.95624 623.527043,152.166667 619.993322,152.166667 C616.497193,152.166667 613.480418,152.95624 610.942905,154.53541 C608.405392,156.11458 606.459995,158.271463 605.106655,161.006124 C603.753315,163.740784 603.076655,166.841303 603.076655,170.307774 C603.076655,173.774245 603.753315,176.865136 605.106655,179.580538 C606.459995,182.29594 608.405392,184.433565 610.942905,185.993477 C613.480418,187.553389 616.497193,188.333333 619.993322,188.333333 Z"/><path d="M204.21728,137.565503 L204.579717,137.40928 C204.753087,137.315016 204.931536,137.226866 205.114914,137.145221 C208.869514,135.473565 213.268363,137.162125 214.940019,140.916725 C216.531148,144.49046 215.077998,148.647871 211.696582,150.481643 L211.7373,150.571777 L202.702632,154.232666 L202.692999,154.199431 L149.928857,176.531444 C149.017001,176.915824 148.046315,177.108014 147.07563,177.108014 C146.104945,177.108014 145.134259,176.915824 144.222403,176.531444 L4.50254401,117.396101 C0.766876191,115.81423 -0.998006242,111.482567 0.575680594,107.712688 C2.14936743,103.94281 6.45862204,102.183534 10.2089972,103.765404 L147.07563,161.688473 L204.21728,137.505663 L204.21728,137.565503 Z M202.690136,198.092629 L149.928857,220.42343 C149.017001,220.80781 148.046315,221 147.07563,221 C146.104945,221 145.134259,220.80781 144.222403,220.42343 L4.50254401,161.288087 C0.766876191,159.706216 -0.998006242,155.374553 0.575680594,151.604674 C2.14936743,147.834796 6.45862204,146.07552 10.2089972,147.65739 L147.07563,205.580459 L199.560115,183.3686 L205.635689,180.740244 C205.787383,180.6633 205.942734,180.590978 206.101643,180.523525 C209.888592,178.91606 214.261629,180.682882 215.869094,184.469831 C217.476558,188.256781 215.709737,192.629817 211.922787,194.237282 C211.651034,194.352634 211.376263,194.450611 211.099712,194.531711 L202.699702,198.113525 L202.690136,198.092629 Z M147.076655,132.445993 C146.105949,132.445993 145.135243,132.254682 144.223368,131.87206 L4.50054564,73.0071746 C1.77962753,71.8593093 0,69.180957 0,66.2229965 C0,63.265036 1.77962753,60.5866837 4.50054564,59.4388184 L144.223368,0.573932636 C146.047118,-0.191310879 148.106192,-0.191310879 149.929942,0.573932636 L289.652764,59.4388184 C292.373683,60.5866837 294.15331,63.265036 294.15331,66.2229965 C294.15331,69.180957 292.373683,71.8593093 289.652764,73.0071746 L149.929942,131.87206 C149.018067,132.254682 148.047361,132.445993 147.076655,132.445993 Z M26.2973059,66.2229965 L147.076655,117.096974 L267.856004,66.2229965 L147.076655,15.349019 L26.2973059,66.2229965 Z"/></g></svg>