<svg xmlns="http://www.w3.org/2000/svg" viewBox="0 0 20 20" aria-labelledby="title-search" role="img"><title id="title-search">Search</title><path fill="currentColor" fill-rule="nonzero" d="M19.4702568,16.4232964 L15.0996428,11.9887486 C15.7354378,10.8017829 16.064188,9.47142484 16.0553164,8.12141032 C16.0553164,3.63607925 12.4612114,0 8.02765822,0 C3.59410501,0 0,3.63607925 0,8.12141032 C0,12.6067414 3.59410501,16.2428206 8.02765822,16.2428206 C9.47860432,16.2438748 10.9020868,15.8426067 12.1434258,15.0826192 L16.4630705,19.4527114 C16.7968415,19.8024632 17.256759,20 17.737302,20 C18.2178449,20 18.6777624,19.8024632 19.0115334,19.4527114 L19.521226,18.9370663 C20.1788726,18.2230342 20.1562934,17.1094439 19.4702568,16.4232964 Z M8.00217359,13.5227927 C5.07628158,13.5227927 2.70372654,11.1244319 2.70138598,8.16437042 C2.69904888,5.20430892 5.06781087,2.80212239 7.99369913,2.79737452 C10.9195874,2.7926407 13.2959431,5.18713869 13.3029923,8.14719258 C13.3100357,11.1039236 10.950232,13.5085863 8.02765822,13.5227927 L8.00217359,13.5227927 Z"/></svg>