<svg xmlns="http://www.w3.org/2000/svg" viewBox="0 0 20 20"><path d="M19 2h-3a1 1 0 00-1 0H5a1 1 0 00-1 0H2L0 4v14l2 1h17l1-1V4l-1-2zM2 3h2v2a1 1 0 001 0V3h10v2a1 1 0 001 0V3h3v3H1V4l1-1zm17 15H1V7h18v11z"/><path d="M8 10H7a1 1 0 010-1h1a1 1 0 010 1z"/><path d="M11 10h-1a1 1 0 010-1h1a1 1 0 010 1z"/><path d="M14 10h-1a1 1 0 010-1h1a1 1 0 010 1z"/><path d="M17 10h-1a1 1 0 010-1h1a1 1 0 010 1z"/><path d="M5 12H4a1 1 0 010-1h1a1 1 0 010 1z"/><path d="M8 12H7a1 1 0 010-1h1a1 1 0 010 1z"/><path d="M11 12h-1a1 1 0 010-1h1a1 1 0 010 1z"/><path d="M14 12h-1a1 1 0 010-1h1a1 1 0 010 1z"/><path d="M17 12h-1a1 1 0 010-1h1a1 1 0 010 1z"/><path d="M5 14H4a1 1 0 010-1h1a1 1 0 010 1z"/><path d="M8 14H7a1 1 0 010-1h1a1 1 0 010 1z"/><path d="M11 14h-1a1 1 0 010-1h1a1 1 0 010 1z"/><path d="M14 14h-1a1 1 0 010-1h1a1 1 0 010 1z"/><path d="M17 14h-1a1 1 0 010-1h1a1 1 0 010 1z"/><path d="M5 16H4a1 1 0 010-1h1a1 1 0 010 1z"/><path d="M8 16H7a1 1 0 010-1h1a1 1 0 010 1z"/><path d="M11 16h-1a1 1 0 010-1h1a1 1 0 010 1z"/><path d="M14 16h-1a1 1 0 010-1h1a1 1 0 010 1z"/><path d="M17 16h-1a1 1 0 010-1h1a1 1 0 010 1z"/></svg>